HIERARCHY
ROOT Hips
{
	OFFSET 0.00 0.00 0.00
	CHANNELS 6 Xposition Yposition Zposition Xrotation Yrotation Zrotation
	JOINT Spine
	{
		OFFSET 0.00000 7.50895 0.00000
		CHANNELS 3 Xrotation Yrotation Zrotation
		JOINT Head
		{
			OFFSET 0.00000 13.86115 0.00000
			CHANNELS 3 Xrotation Yrotation Zrotation
			End Site
			{
				OFFSET 0.00000 4.52755 0.00000
			}
		}
		JOINT LeftShoulder
		{
			OFFSET 0.00000 8.20478 0.00000
			CHANNELS 3 Xrotation Yrotation Zrotation
			JOINT LeftArm
			{
				OFFSET 6.63596 0.00000 0.00000
				CHANNELS 3 Xrotation Yrotation Zrotation
				JOINT LeftForeArm
				{
					OFFSET 10.27422 0.00000 0.00000
					CHANNELS 3 Yrotation Zrotation Xrotation
					JOINT LeftHand
					{
						OFFSET 8.52215 0.00000 0.00000
						CHANNELS 3 Xrotation Yrotation Zrotation
						JOINT LeftHandThumb1
						{
							OFFSET 0.00000 0.00000 0.00000
							CHANNELS 3 Xrotation Zrotation Yrotation
							End Site
							{
								OFFSET 0.00000 0.00000 3.93700
							}
						}
						End Site
						{
							OFFSET 3.93700 0.00000 0.00000
						}
					}
				}
			}
		}
		JOINT RightShoulder
		{
			OFFSET 0.00000 8.20478 0.00000
			CHANNELS 3 Xrotation Yrotation Zrotation
			JOINT RightArm
			{
				OFFSET -6.63596 0.00000 0.00000
				CHANNELS 3 Xrotation Yrotation Zrotation
				JOINT RightForeArm
				{
					OFFSET -10.27422 0.00000 0.00000
					CHANNELS 3 Yrotation Zrotation Xrotation
					JOINT RightHand
					{
						OFFSET -8.52215 0.00000 0.00000
						CHANNELS 3 Xrotation Yrotation Zrotation
						JOINT RightHandThumb1
						{
							OFFSET 0.00000 0.00000 0.00000
							CHANNELS 3 Xrotation Zrotation Yrotation
							End Site
							{
								OFFSET 0.00000 0.00000 3.93700
							}
						}
						End Site
						{
							OFFSET -3.93700 0.00000 0.00000
						}
					}
				}
			}
		}
	}
	JOINT LeftUpLeg
	{
		OFFSET 3.00056 0.00000 0.00000
		CHANNELS 3 Xrotation Yrotation Zrotation
		JOINT LeftLeg
		{
			OFFSET 0.00000 -16.49085 0.00000
			CHANNELS 3 Xrotation Yrotation Zrotation
			JOINT LeftFoot
			{
				OFFSET 0.00000 -14.55658 0.00000
				CHANNELS 3 Xrotation Yrotation Zrotation
				JOINT LeftToeBase
				{
					OFFSET 0.00000 -1.25038 4.66650
					CHANNELS 3 Xrotation Yrotation Zrotation
					End Site
					{
						OFFSET 0.00000 0.00000 2.95275
					}
				}
			}
		}
	}
	JOINT RightUpLeg
	{
		OFFSET -3.00056 0.00000 0.00000
		CHANNELS 3 Xrotation Yrotation Zrotation
		JOINT RightLeg
		{
			OFFSET 0.00000 -16.49085 0.00000
			CHANNELS 3 Xrotation Yrotation Zrotation
			JOINT RightFoot
			{
				OFFSET 0.00000 -14.55658 0.00000
				CHANNELS 3 Xrotation Yrotation Zrotation
				JOINT RightToeBase
				{
					OFFSET 0.00000 -1.25038 4.66650
					CHANNELS 3 Xrotation Yrotation Zrotation
					End Site
					{
						OFFSET 0.00000 0.00000 2.95275
					}
				}
			}
		}
	}
}
MOTION
Frames: 11
Frame Time: 0.008333
 -0.3210 30.7122 -3.5962 11.9674 -2.1989 -1.3892 -12.4097 6.3127 1.5747 -10.3383 -5.1925 5.4584 7.3379 22.6607 29.8095 -29.6496 0.3171 -28.0057 -12.2460 -0.0000 11.1945 2.5850 31.9020 -4.8830 33.1476 -0.0000 26.2537 -24.9549 -6.0821 -40.3747 -5.8018 -20.5031 29.6815 15.9579 -0.0000 26.3772 -3.2074 -15.0273 -12.1959 32.8623 0.0000 -24.3270 -11.8031 16.0054 24.6022 -2.6322 0.0000 -0.0000 2.4365 16.6359 -32.5510 10.2308 -0.0000 -0.0000 -10.7341 -12.5600 -20.6238 -1.6376 0.0000 0.0000 0.6277 -6.2523 14.9754 1.1565 -0.0000 0.0000
 -0.3272 30.7138 -3.6112 11.9795 -2.2258 -1.3896 -12.3910 6.2643 1.6779 -10.4063 -5.0524 5.4020 7.3201 22.5721 29.7492 -29.5427 0.2033 -28.0312 -12.2512 -0.0000 11.1933 2.5139 31.9669 -4.7406 33.1476 -0.0000 26.2537 -24.8930 -6.0324 -40.3444 -5.7878 -20.4454 29.7344 15.9996 -0.0000 26.2314 -3.2124 -14.9410 -12.2810 32.8623 0.0000 -24.3270 -11.8336 15.9640 24.6265 -2.6116 0.0000 -0.0000 2.5015 16.6573 -32.5752 10.2231 -0.0000 0.0000 -10.7875 -12.5215 -20.6097 -1.6075 0.0000 -0.0000 0.6354 -6.2606 14.9510 1.1527 0.0000 0.0000
 -0.3327 30.7156 -3.6274 11.9934 -2.2654 -1.3851 -12.3648 6.2390 1.7904 -10.4899 -4.9535 5.3118 7.3876 22.5717 29.6700 -29.5801 0.1126 -28.1030 -12.3522 -0.0000 11.1691 2.4862 32.0077 -4.6831 33.1476 -0.0000 26.2537 -24.8430 -5.9969 -40.3309 -5.8312 -20.3867 29.7615 16.0506 -0.0000 26.1532 -3.1924 -14.8616 -12.2687 32.8623 0.0000 -24.3270 -11.8538 15.9065 24.6401 -2.5767 0.0000 0.0000 2.5468 16.7390 -32.6489 10.2064 -0.0000 0.0000 -10.8300 -12.4138 -20.5971 -1.5673 -0.0000 0.0000 0.6426 -6.3321 14.9764 1.1367 0.0000 -0.0000
 -0.3399 30.7177 -3.6463 12.0048 -2.3110 -1.4011 -12.3211 6.2561 1.9282 -10.5730 -4.9174 5.2424 7.4618 22.5409 29.5629 -29.7051 0.0486 -28.1425 -12.4434 -0.0000 11.2387 2.5158 31.9529 -4.7459 33.1476 -0.0000 26.2537 -24.8350 -5.9425 -40.3475 -5.8654 -20.3565 29.7891 16.0680 -0.0000 26.1804 -3.2455 -14.8079 -12.5094 32.8623 0.0000 -24.3270 -11.9030 15.8797 24.6845 -2.5327 -0.0000 0.0000 2.5859 16.7906 -32.6736 10.1864 0.0000 0.0000 -10.8628 -12.2931 -20.5587 -1.5326 0.0000 -0.0000 0.6449 -6.3949 14.9663 1.1614 -0.0000 -0.0000
 -0.3460 30.7199 -3.6663 12.0263 -2.3529 -1.3996 -12.2834 6.2751 2.0636 -10.6530 -4.8614 5.1192 7.5464 22.5165 29.4675 -29.8009 -0.0510 -28.2179 -12.4774 -0.0000 11.3124 2.4928 31.8823 -4.7120 33.1476 -0.0000 26.2537 -24.8560 -5.8501 -40.4014 -5.9020 -20.3525 29.8179 16.1062 -0.0000 26.2410 -3.2248 -14.7077 -12.5122 32.8623 0.0000 -24.3270 -11.9661 15.8683 24.7071 -2.4913 0.0000 -0.0000 2.6253 16.8258 -32.6979 10.2245 -0.0000 0.0000 -10.9249 -12.2023 -20.5418 -1.4950 -0.0000 -0.0000 0.6529 -6.4356 14.9687 1.1873 -0.0000 -0.0000
 -0.3527 30.7229 -3.6868 12.0465 -2.3904 -1.4112 -12.2389 6.2861 2.2114 -10.7413 -4.7947 5.0252 7.5418 22.4188 29.4119 -29.6630 -0.1843 -28.2695 -12.4990 -0.0000 11.2237 2.3759 31.8621 -4.4943 33.1476 -0.0000 26.2537 -24.8176 -5.8410 -40.4109 -5.8978 -20.2027 29.8453 16.1344 -0.0000 26.1966 -3.3152 -14.7959 -12.7798 32.8623 0.0000 -24.3270 -12.0425 15.8579 24.7411 -2.4408 -0.0000 0.0000 2.6629 16.8541 -32.6516 10.2039 0.0000 -0.0000 -10.9717 -12.0966 -20.5106 -1.4634 -0.0000 -0.0000 0.6904 -6.5028 14.9747 1.1549 -0.0000 -0.0000
 -0.3598 30.7260 -3.7070 12.0653 -2.4114 -1.4122 -12.1841 6.2828 2.3574 -10.8474 -4.7527 4.9183 7.6000 22.3600 29.3012 -29.6853 -0.2323 -28.3084 -12.6649 -0.0000 11.2471 2.3571 32.0060 -4.4409 33.1476 -0.0000 26.2537 -24.8159 -5.7490 -40.4424 -5.9066 -20.1725 29.8463 16.2043 -0.0000 26.2253 -3.2829 -14.6847 -12.7496 32.8623 0.0000 -24.3270 -12.1166 15.8340 24.7596 -2.3873 0.0000 -0.0000 2.7043 16.9053 -32.6169 10.1908 0.0000 0.0000 -11.0246 -12.0458 -20.4926 -1.4494 0.0000 0.0000 0.7249 -6.5352 14.9746 1.1337 -0.0000 0.0000
 -0.3663 30.7295 -3.7320 12.1206 -2.4035 -1.4071 -12.1582 6.2529 2.4910 -10.9452 -4.6847 4.7977 7.7027 22.3669 29.1622 -29.8121 -0.4217 -28.3585 -12.6125 -0.0000 11.2882 2.2467 32.0234 -4.2315 33.1476 -0.0000 26.2537 -24.8290 -5.6458 -40.4379 -5.8969 -20.1094 29.8007 16.2625 -0.0000 26.2534 -3.3098 -14.6115 -12.9120 32.8623 0.0000 -24.3270 -12.2521 15.7866 24.7611 -2.3108 -0.0000 -0.0000 2.7442 16.9504 -32.5006 10.0823 -0.0000 0.0000 -11.1191 -12.0038 -20.4883 -1.4307 -0.0000 0.0000 0.8006 -6.6113 15.0646 1.0232 -0.0000 0.0000
 -0.3741 30.7335 -3.7568 12.1823 -2.3865 -1.4094 -12.1465 6.2336 2.6323 -10.9850 -4.6763 4.7053 7.7391 22.2924 29.1003 -29.8759 -0.4661 -28.4399 -12.7031 -0.0000 11.4358 2.3450 31.9803 -4.4214 33.1476 -0.0000 26.2537 -24.7828 -5.6253 -40.4416 -5.9160 -19.9883 29.7753 16.3366 -0.0000 26.1895 -3.3098 -14.5823 -12.9364 32.8623 0.0000 -24.3270 -12.4102 15.7491 24.7729 -2.2281 0.0000 0.0000 2.7762 17.0043 -32.3797 10.0670 0.0000 0.0000 -11.2124 -11.9731 -20.4695 -1.4152 -0.0000 0.0000 0.7898 -6.6527 14.9719 1.1777 -0.0000 -0.0000
 -0.3814 30.7377 -3.7808 12.2389 -2.3481 -1.3975 -12.1204 6.2035 2.7645 -11.0646 -4.6662 4.5593 7.8591 22.3047 28.9702 -29.9119 -0.7109 -28.5186 -12.6859 -0.0000 11.3898 2.1934 32.0167 -4.1321 33.1476 -0.0000 26.2537 -24.7812 -5.5619 -40.4772 -5.9473 -19.9160 29.7526 16.3974 -0.0000 26.2514 -3.3027 -14.4464 -13.0241 32.8623 0.0000 -24.3270 -12.5691 15.7136 24.7634 -2.1476 0.0000 0.0000 2.8396 17.0718 -32.2282 9.9671 0.0000 0.0000 -11.2892 -11.9780 -20.4699 -1.4385 -0.0000 -0.0000 0.8596 -6.7195 14.9639 1.1691 0.0000 0.0000
 -0.3880 30.7428 -3.8066 12.3039 -2.2860 -1.3709 -12.0935 6.1670 2.8969 -11.1515 -4.6411 4.4134 7.8863 22.1952 28.8592 -29.7541 -0.9160 -28.5451 -12.6943 -0.0000 11.2074 2.1220 32.0445 -3.9947 33.1476 -0.0000 26.2537 -24.7833 -5.5123 -40.5332 -5.9159 -19.7992 29.7458 16.4702 -0.0000 26.2061 -3.3104 -14.3917 -13.1006 32.8623 0.0000 -24.3270 -12.7788 15.7255 24.7348 -2.0351 -0.0000 0.0000 2.8852 17.1163 -32.0661 9.8696 -0.0000 0.0000 -11.3973 -12.0206 -20.4954 -1.4379 0.0000 -0.0000 0.9054 -6.7574 14.9454 1.1646 -0.0000 -0.0000
